<svg width="48" height="48" viewBox="0 0 48 48" fill="none" xmlns="http://www.w3.org/2000/svg">
  <rect width="48" height="48" rx="8" fill="#0077FF"/>
  <path d="M24 12C17.3726 12 12 17.3726 12 24C12 30.6274 17.3726 36 24 36C30.6274 36 36 30.6274 36 24C36 17.3726 30.6274 12 24 12ZM24 16C28.4183 16 32 19.5817 32 24C32 28.4183 28.4183 32 24 32C19.5817 32 16 28.4183 16 24C16 19.5817 19.5817 16 24 16Z" fill="white"/>
  <path d="M24 20C21.7909 20 20 21.7909 20 24C20 26.2091 21.7909 28 24 28C26.2091 28 28 26.2091 28 24C28 21.7909 26.2091 20 24 20Z" fill="#22C55E"/>
  <path d="M38 24C38 31.732 31.732 38 24 38M24 38C16.268 38 10 31.732 10 24M24 38V44M10 24C10 16.268 16.268 10 24 10M24.0001 10V4M24 10C31.732 10 38 16.268 38 24M38 24H44M10 24H4" stroke="white" stroke-width="2" stroke-linecap="round"/>
</svg> 